<?xml version="1.0" encoding="UTF-8" standalone="no"?>
<!DOCTYPE svg PUBLIC "-//W3C//DTD SVG 1.1//EN"
 "http://www.w3.org/Graphics/SVG/1.1/DTD/svg11.dtd">
<!-- Generated by graphviz version 12.1.1 (20240910.0053)
 -->
<!-- Title: INFRA Pages: 1 -->
<svg width="381pt" height="296pt"
 viewBox="0.00 0.00 381.22 296.00" xmlns="http://www.w3.org/2000/svg" xmlns:xlink="http://www.w3.org/1999/xlink">
<g id="graph0" class="graph" transform="scale(1 1) rotate(0) translate(4 292)">
<title>INFRA</title>
<polygon fill="white" stroke="none" points="-4,4 -4,-292 377.22,-292 377.22,4 -4,4"/>
<!-- UserRegistration -->
<g id="node1" class="node">
<title>UserRegistration</title>
<path fill="#ffcfb3" stroke="black" stroke-width="2" d="M179.37,-65.45C179.37,-69.07 139.17,-72 89.69,-72 40.2,-72 0,-69.07 0,-65.45 0,-65.45 0,-6.55 0,-6.55 0,-2.93 40.2,0 89.69,0 139.17,0 179.37,-2.93 179.37,-6.55 179.37,-6.55 179.37,-65.45 179.37,-65.45"/>
<path fill="none" stroke="black" stroke-width="2" d="M179.37,-65.45C179.37,-61.84 139.17,-58.91 89.69,-58.91 40.2,-58.91 0,-61.84 0,-65.45"/>
<text text-anchor="middle" x="89.69" y="-40.2" font-family="Arial" font-size="14.00">UserRegistration</text>
<text text-anchor="middle" x="89.69" y="-23.4" font-family="Arial" font-size="14.00">(AWS::DynamoDB::Table)</text>
</g>
<!-- otp_pinpoint_project -->
<g id="node2" class="node">
<title>otp_pinpoint_project</title>
<path fill="#e6e6e6" stroke="black" stroke-width="2" d="M339.82,-72C339.82,-72 215.55,-72 215.55,-72 209.55,-72 203.55,-66 203.55,-60 203.55,-60 203.55,-12 203.55,-12 203.55,-6 209.55,0 215.55,0 215.55,0 339.82,0 339.82,0 345.82,0 351.82,-6 351.82,-12 351.82,-12 351.82,-60 351.82,-60 351.82,-66 345.82,-72 339.82,-72"/>
<text text-anchor="middle" x="277.69" y="-40.2" font-family="Arial" font-size="14.00">otp_pinpoint_project</text>
<text text-anchor="middle" x="277.69" y="-23.4" font-family="Arial" font-size="14.00">(AWS::Pinpoint::App)</text>
</g>
<!-- sendOtpFunction -->
<g id="node3" class="node">
<title>sendOtpFunction</title>
<path fill="#b7e0ff" stroke="black" stroke-width="2" d="M166.22,-180C166.22,-180 13.16,-180 13.16,-180 7.16,-180 1.16,-174 1.16,-168 1.16,-168 1.16,-120 1.16,-120 1.16,-114 7.16,-108 13.16,-108 13.16,-108 166.22,-108 166.22,-108 172.22,-108 178.22,-114 178.22,-120 178.22,-120 178.22,-168 178.22,-168 178.22,-174 172.22,-180 166.22,-180"/>
<text text-anchor="middle" x="89.69" y="-148.2" font-family="Arial" font-size="14.00">sendOtpFunction</text>
<text text-anchor="middle" x="89.69" y="-131.4" font-family="Arial" font-size="14.00">(AWS::Lambda::Function)</text>
</g>
<!-- sendOtpFunction&#45;&gt;UserRegistration -->
<g id="edge1" class="edge">
<title>sendOtpFunction&#45;&gt;UserRegistration</title>
<path fill="none" stroke="black" d="M89.69,-107.7C89.69,-99.93 89.69,-91.57 89.69,-83.43"/>
<polygon fill="black" stroke="black" points="93.19,-83.66 89.69,-73.66 86.19,-83.66 93.19,-83.66"/>
</g>
<!-- sendOtpFunction&#45;&gt;otp_pinpoint_project -->
<g id="edge2" class="edge">
<title>sendOtpFunction&#45;&gt;otp_pinpoint_project</title>
<path fill="none" stroke="black" d="M152.55,-107.56C169.32,-98.1 187.59,-87.8 204.85,-78.07"/>
<polygon fill="black" stroke="black" points="206.57,-81.11 213.56,-73.15 203.13,-75.02 206.57,-81.11"/>
</g>
<!-- verifyOtpFunction -->
<g id="node4" class="node">
<title>verifyOtpFunction</title>
<path fill="#b7e0ff" stroke="black" stroke-width="2" d="M361.22,-180C361.22,-180 208.16,-180 208.16,-180 202.16,-180 196.16,-174 196.16,-168 196.16,-168 196.16,-120 196.16,-120 196.16,-114 202.16,-108 208.16,-108 208.16,-108 361.22,-108 361.22,-108 367.22,-108 373.22,-114 373.22,-120 373.22,-120 373.22,-168 373.22,-168 373.22,-174 367.22,-180 361.22,-180"/>
<text text-anchor="middle" x="284.69" y="-148.2" font-family="Arial" font-size="14.00">verifyOtpFunction</text>
<text text-anchor="middle" x="284.69" y="-131.4" font-family="Arial" font-size="14.00">(AWS::Lambda::Function)</text>
</g>
<!-- verifyOtpFunction&#45;&gt;otp_pinpoint_project -->
<g id="edge3" class="edge">
<title>verifyOtpFunction&#45;&gt;otp_pinpoint_project</title>
<path fill="none" stroke="black" d="M282.36,-107.7C281.84,-99.93 281.29,-91.57 280.75,-83.43"/>
<polygon fill="black" stroke="black" points="284.26,-83.4 280.11,-73.65 277.27,-83.86 284.26,-83.4"/>
</g>
<!-- OTPAPI -->
<g id="node5" class="node">
<title>OTPAPI</title>
<path fill="#e78f81" stroke="black" stroke-width="2" d="M273.32,-288C273.32,-288 100.05,-288 100.05,-288 94.05,-288 88.05,-282 88.05,-276 88.05,-276 88.05,-228 88.05,-228 88.05,-222 94.05,-216 100.05,-216 100.05,-216 273.32,-216 273.32,-216 279.32,-216 285.32,-222 285.32,-228 285.32,-228 285.32,-276 285.32,-276 285.32,-282 279.32,-288 273.32,-288"/>
<text text-anchor="middle" x="186.69" y="-256.2" font-family="Arial" font-size="14.00">OTPAPI</text>
<text text-anchor="middle" x="186.69" y="-239.4" font-family="Arial" font-size="14.00">(AWS::ApiGateway::RestApi)</text>
</g>
<!-- OTPAPI&#45;&gt;sendOtpFunction -->
<g id="edge4" class="edge">
<title>OTPAPI&#45;&gt;sendOtpFunction</title>
<path fill="none" stroke="black" d="M154.39,-215.7C146.45,-207.03 137.86,-197.65 129.61,-188.63"/>
<polygon fill="black" stroke="black" points="132.2,-186.27 122.87,-181.26 127.04,-191 132.2,-186.27"/>
</g>
<!-- OTPAPI&#45;&gt;verifyOtpFunction -->
<g id="edge5" class="edge">
<title>OTPAPI&#45;&gt;verifyOtpFunction</title>
<path fill="none" stroke="black" d="M219.32,-215.7C227.42,-206.94 236.19,-197.45 244.6,-188.35"/>
<polygon fill="black" stroke="black" points="246.95,-190.97 251.17,-181.25 241.81,-186.22 246.95,-190.97"/>
</g>
</g>
</svg>
